<svg width="17" height="10" viewBox="0 0 17 10" fill="none" xmlns="http://www.w3.org/2000/svg">
<path fill-rule="evenodd" clip-rule="evenodd" d="M15.1238 0.00274658H14.218C13.7177 0.00274658 13.3122 0.408286 13.3122 0.908544V8.75879C13.3122 9.25904 13.7177 9.66458 14.218 9.66458H15.1238C15.6241 9.66458 16.0296 9.25904 16.0296 8.75879V0.908544C16.0296 0.408286 15.6241 0.00274658 15.1238 0.00274658ZM9.99072 2.11588H10.8965C11.3968 2.11588 11.8023 2.52142 11.8023 3.02168V8.75839C11.8023 9.25865 11.3968 9.66419 10.8965 9.66419H9.99072C9.49046 9.66419 9.08492 9.25865 9.08492 8.75839V3.02168C9.08492 2.52142 9.49046 2.11588 9.99072 2.11588ZM6.66974 4.23003H5.76394C5.26368 4.23003 4.85814 4.63557 4.85814 5.13583V8.75902C4.85814 9.25927 5.26368 9.66481 5.76394 9.66481H6.66974C7.17 9.66481 7.57553 9.25927 7.57553 8.75902V5.13583C7.57553 4.63557 7.17 4.23003 6.66974 4.23003ZM2.44245 6.04158H1.53666C1.0364 6.04158 0.630859 6.44712 0.630859 6.94737V8.75897C0.630859 9.25923 1.0364 9.66477 1.53666 9.66477H2.44245C2.94271 9.66477 3.34825 9.25923 3.34825 8.75897V6.94737C3.34825 6.44712 2.94271 6.04158 2.44245 6.04158Z" fill="black"/>
</svg>
